<svg xmlns="http://www.w3.org/2000/svg" viewBox="0 0 32 32" fill="currentColor">
  <path d="M16 2C8.268 2 2 8.268 2 16c0 6.187 4.008 11.436 9.575 13.295.7.13.953-.305.953-.675 0-.334-.013-1.44-.018-2.61-3.895.847-4.716-1.653-4.716-1.653-.636-1.618-1.554-2.05-1.554-2.05-1.27-.868.096-.85.096-.85 1.405.098 2.144 1.442 2.144 1.442 1.248 2.14 3.274 1.52 4.072 1.163.126-.905.488-1.522.888-1.872-3.11-.353-6.38-1.555-6.38-6.92 0-1.53.546-2.78 1.44-3.76-.144-.354-.624-1.78.136-3.71 0 0 1.175-.378 3.85 1.436A13.35 13.35 0 0 1 16 9.12c1.19.005 2.39.16 3.51.47 2.67-1.814 3.843-1.436 3.843-1.436.762 1.93.282 3.356.138 3.71.896.98 1.438 2.23 1.438 3.76 0 5.38-3.275 6.564-6.395 6.91.504.434.952 1.287.952 2.594 0 1.872-.017 3.382-.017 3.841 0 .373.25.81.96.672C25.996 27.43 30 22.184 30 16c0-7.732-6.268-14-14-14z"/>
</svg>
